<?xml version="1.0" encoding="UTF-8"?>
<svg xmlns="http://www.w3.org/2000/svg" width="64" height="64" viewBox="0 0 64 64" role="img" aria-label="VibeCAD">
  <defs>
    <linearGradient id="markAccent" x1="10" y1="54" x2="54" y2="10" gradientUnits="userSpaceOnUse">
      <stop offset="0" stop-color="#1c7ed6"/>
      <stop offset="1" stop-color="#74c0fc"/>
    </linearGradient>
  </defs>
  <rect x="6" y="6" width="52" height="52" rx="13" fill="#0e1116"/>
  <path d="M18 18h12l-4.8 16.6c-.4 1.5.7 2.9 2.2 2.9h2.5l-3.1 8.5h-8.7l2.2-6.3c-5.6-2.2-9.1-7.4-9.1-13.8 0-3.1.8-5.8 2.4-7.9z" fill="url(#markAccent)"/>
  <path d="M34 18h12.2c4.6 0 7.8 3.1 7.8 7.6 0 3.3-1.8 5.8-4.8 7 2.2.9 3.6 3.1 3.6 6 0 5-3.5 8.4-8.7 8.4H31l2.7-8.5h8.2c1.6 0 2.7-1 2.7-2.4s-1-2.3-2.7-2.3h-5.8l2.3-7.3h5.4c1.5 0 2.5-.9 2.5-2.3 0-1.3-1-2.1-2.5-2.1H32.7L34 18z" fill="#e8edf2"/>
  <path d="M20.2 50h23.6" fill="none" stroke="#4dabf7" stroke-width="3.2" stroke-linecap="round"/>
</svg>
